<svg width="630" height="630" viewBox="0 0 630 630" fill="none" xmlns="http://www.w3.org/2000/svg">
<g clip-path="url(#clip0_407_66)">
<path fill-rule="evenodd" clip-rule="evenodd" d="M608.551 108.724C615.471 95.8388 599.78 99.7467 599.78 99.7467C599.78 99.7467 495.17 200.163 480.631 187.858C466.092 175.553 583.055 79.3111 569.215 61.3266C556.408 44.5627 453.649 164.243 441.305 149.625C429.079 135.037 529.298 30.2892 529.298 30.2892C529.298 30.2892 533.108 14.5195 520.321 21.4298C362.752 106.165 342.681 185.161 342.681 185.161C342.681 185.161 337.257 200.547 349.03 212.438C350.182 213.472 61.553 500.466 22.9163 539.211C4.11474 557.993 73.0997 625.846 91.7832 607.064C130.43 568.319 416.863 279.238 417.897 280.311C429.778 292.172 445.125 286.729 445.125 286.729C445.125 286.729 523.993 266.598 608.551 108.724Z" fill="#6E7275"/>
<path fill-rule="evenodd" clip-rule="evenodd" d="M315.276 398.741C392.086 475.719 521.581 605.45 521.581 605.45C521.581 605.45 578.104 586.953 586.067 539.211L380.579 333.319C358.791 355.106 337.023 376.914 315.276 398.741ZM214.2 332.02C241.752 304.49 269.272 276.927 296.76 249.332L73.4245 25.5741C73.4245 25.5741 69.3886 21.3412 60.4997 30.2695C42.8498 47.8603 8.70187 159.941 153.474 304.93C176.42 327.925 196.383 331.114 214.2 332.02Z" fill="#6E7275"/>
<path fill-rule="evenodd" clip-rule="evenodd" d="M389 133H250V164H230V195H120V300H429V295H477V223H429V195H406V164H389V133Z" fill="#EBBF69"/>
<path d="M111.5 379H518.5L505 411H124.5L111.5 379Z" fill="#EBBF69"/>
<path d="M315 101.667C291.263 101.663 268.083 108.856 248.518 122.296C228.953 135.737 213.923 154.794 205.411 176.952C196.562 174.4 187.59 172.293 178.531 170.637C159.898 167.264 140.996 165.607 122.061 165.688L118.392 165.773L117.368 165.816L116.941 165.837C113.005 166.052 109.287 167.713 106.5 170.5C103.712 173.287 102.052 177.005 101.837 180.941L101.773 182.413C101.627 187.988 101.663 193.566 101.88 199.139C102.307 210.083 103.501 225.315 106.637 242.531C109.496 258.211 114.061 275.917 121.357 293.667H117.581C113.36 293.667 109.313 295.343 106.328 298.328C103.343 301.313 101.667 305.36 101.667 309.581V315C101.667 337.293 105.08 358.797 111.437 379H518.563C525.057 358.288 528.352 336.706 528.333 315V309.581C528.333 305.36 526.657 301.313 523.672 298.328C520.687 295.343 516.639 293.667 512.419 293.667H506.936C507.539 270.122 500.136 247.07 485.937 228.28C471.738 209.489 451.584 196.071 428.771 190.221C422.358 164.905 407.685 142.45 387.075 126.411C366.465 110.372 341.094 101.665 314.979 101.667H315ZM315 133.667C332.064 133.669 348.736 138.787 362.863 148.358C376.99 157.929 387.924 171.516 394.253 187.363C375.908 188.905 358.301 195.285 343.227 205.854C328.153 216.423 316.153 230.802 308.451 247.523C302.697 238.999 296.147 231.042 288.888 223.757C272.909 207.779 254.328 196.237 235.512 187.853C241.778 171.877 252.715 158.161 266.895 148.495C281.075 138.829 297.839 133.661 315 133.667ZM474.957 291C474.957 291.896 474.957 292.792 474.915 293.667H331.363L330.979 292.6V291C330.979 271.904 338.564 253.591 352.067 240.088C365.57 226.586 383.883 219 402.979 219C422.074 219 440.388 226.586 453.89 240.088C467.393 253.591 474.979 271.904 474.979 291H474.957ZM266.275 246.392C279.992 260.088 289.933 276.579 297.101 293.667H252.301L214.307 255.693C212.842 254.121 211.075 252.86 209.113 251.986C207.15 251.111 205.031 250.641 202.883 250.603C200.735 250.565 198.601 250.961 196.609 251.765C194.616 252.57 192.806 253.768 191.287 255.287C189.768 256.807 188.57 258.616 187.765 260.609C186.961 262.601 186.565 264.735 186.603 266.883C186.641 269.031 187.111 271.15 187.986 273.113C188.86 275.075 190.121 276.842 191.693 278.307L207.053 293.667H156.493C147.107 274.979 141.475 254.989 138.147 236.771C135.813 223.931 134.387 210.942 133.88 197.901V197.859C143.693 198.221 157.389 199.309 172.771 202.125C203.917 207.821 240.184 220.259 266.275 246.392ZM124.429 411C142.211 446.288 169.445 475.944 203.094 496.662C236.743 517.379 275.485 528.344 315 528.333C354.515 528.344 393.257 517.379 426.906 496.662C460.555 475.944 487.789 446.288 505.571 411H124.429Z" fill="#CF1010"/>
</g>
<defs>
<clipPath id="clip0_407_66">
<rect width="630" height="630" fill="white"/>
</clipPath>
</defs>
</svg>
